HIERARCHY
ROOT root
{
	OFFSET	0	13.1	24.9
	CHANNELS 6  Xposition Yposition Zposition Xrotation Yrotation Zrotation
	JOINT spine_1
	{
		OFFSET	0	9.99999	0
		CHANNELS 3  Xrotation Yrotation Zrotation
		JOINT spine_2
		{
			OFFSET	0	112	-10
			CHANNELS 3  Xrotation Yrotation Zrotation
			JOINT spine_3
			{
				OFFSET	0	206.5	19.3
				CHANNELS 3  Xrotation Yrotation Zrotation
				JOINT spine_4
				{
					OFFSET	0	110.4	14.6
					CHANNELS 3  Xrotation Yrotation Zrotation
					JOINT neck_1
					{
						OFFSET	0	71.8	-50.3
						CHANNELS 3  Xrotation Yrotation Zrotation
						JOINT neck_2
						{
							OFFSET	0	86.2	-25.8
							CHANNELS 3  Xrotation Yrotation Zrotation
							JOINT head_ee
							{
								OFFSET	0	179.8	-8.7
								CHANNELS 3  Xrotation Yrotation Zrotation
								End Site
								{
									OFFSET	1	0	0
								}
							}
						}
					}
					JOINT left_clavicle
					{
						OFFSET	-43.2	22.4	-70.8
						CHANNELS 3  Xrotation Yrotation Zrotation
						JOINT left_shoulder
						{
							OFFSET	-93.9	-5.79999	48.7
							CHANNELS 3  Xrotation Yrotation Zrotation
							JOINT left_elbow
							{
								OFFSET	-291.4	-30.8	15.2
								CHANNELS 3  Xrotation Yrotation Zrotation
								JOINT left_lowarm_twist
								{
									OFFSET	-110.7	-3.89999	13.6
									CHANNELS 3  Xrotation Yrotation Zrotation
									JOINT left_hand
									{
										OFFSET	-110.7	-3.89999	13.6
										CHANNELS 3  Xrotation Yrotation Zrotation
										JOINT left_ee
										{
											OFFSET	-80.8	-5.10001	12.1
											CHANNELS 3  Xrotation Yrotation Zrotation
											End Site
											{
												OFFSET	1	0	0
											}
										}
									}
								}
							}
						}
					}
					JOINT right_clavicle
					{
						OFFSET	43.2	22.4	-70.8
						CHANNELS 3  Xrotation Yrotation Zrotation
						JOINT right_shoulder
						{
							OFFSET	93.9	-5.79999	48.7
							CHANNELS 3  Xrotation Yrotation Zrotation
							JOINT right_elbow
							{
								OFFSET	291.4	-30.8	15.2
								CHANNELS 3  Xrotation Yrotation Zrotation
								JOINT right_lowarm_twist
								{
									OFFSET	110.7	-3.89999	13.6
									CHANNELS 3  Xrotation Yrotation Zrotation
									JOINT right_hand
									{
										OFFSET	110.7	-3.89999	13.6
										CHANNELS 3  Xrotation Yrotation Zrotation
										JOINT right_ee
										{
											OFFSET	80.8	-5.10001	12.1
											CHANNELS 3  Xrotation Yrotation Zrotation
											End Site
											{
												OFFSET	1	0	0
											}
										}
									}
								}
							}
						}
					}
				}
			}
		}
	}
	JOINT left_hip
	{
		OFFSET	-82.8	-127.5	0.300001
		CHANNELS 3  Xrotation Yrotation Zrotation
		JOINT left_knee
		{
			OFFSET	-28.2	-396.7	2.2
			CHANNELS 3  Xrotation Yrotation Zrotation
			JOINT left_ankle
			{
				OFFSET	-11.7	-411.3	35.4
				CHANNELS 3  Xrotation Yrotation Zrotation
				JOINT left_toes
				{
					OFFSET	0	-60	-88.6
					CHANNELS 3  Xrotation Yrotation Zrotation
					JOINT left_foot_ee
					{
						OFFSET	-22.5	-16.5	-42.2
						CHANNELS 3  Xrotation Yrotation Zrotation
						End Site
						{
							OFFSET	1	0	0
						}
					}
				}
			}
		}
	}
	JOINT right_hip
	{
		OFFSET	82.8	-127.5	0.300001
		CHANNELS 3  Xrotation Yrotation Zrotation
		JOINT right_knee
		{
			OFFSET	28.2	-396.7	2.2
			CHANNELS 3  Xrotation Yrotation Zrotation
			JOINT right_ankle
			{
				OFFSET	11.7	-411.3	35.4
				CHANNELS 3  Xrotation Yrotation Zrotation
				JOINT right_toes
				{
					OFFSET	0	-60	-88.6
					CHANNELS 3  Xrotation Yrotation Zrotation
					JOINT right_foot_ee
					{
						OFFSET	22.5	-16.5	-42.2
						CHANNELS 3  Xrotation Yrotation Zrotation
						End Site
						{
							OFFSET	1	0	0
						}
					}
				}
			}
		}
	}
}
MOTION
Frames: 9
Frame Time: 0.02
2557.01 711.819 -1484.81 1.88118 58.8911 -11.7253 -1.53319 0.817216 4.87261 -1.52013 0.505887 4.9146 -1.46417 -0.664643 4.8957 -1.49758 0.115906 4.93915 3.97389 14.1529 -9.79706 5.96843 32.8115 -10.8329 -0.0 0.0 -0.0 5.74397 25.7204 10.5175 -7.75451 -38.2063 23.7972 4.1407 -63.9906 2.58761 -42.0611 -3.17298 4.20473 -11.0906 26.9709 -69.7657 -0.0 0.0 -0.0 10.3681 20.1057 -20.2212 -28.8138 21.3377 -62.389 0.567466 15.7011 -0.078244 -15.8311 0.818373 -1.84501 4.42883 -5.67661 -33.3855 0.0 0.0 0.0 -27.492 16.921 26.5404 -6.83951 0.220581 1.02587 18.2564 7.51534 -2.51228 6.18594 -0.0 -0.0 -0.0 0.0 -0.0 30.4505 34.8701 -6.39019 -14.0232 -0.31895 -2.12305 21.0597 -15.9294 2.89596 -8.65625 0.0 0.0 0.0 0.0 0.0 
2534.97 705.409 -1491.09 1.8117 59.014 -12.2397 -1.44161 0.895437 4.89901 -1.42845 0.582277 4.9459 -1.36559 -0.588979 4.94511 -1.39965 0.1984 4.97603 4.39508 13.8011 -9.95724 6.40994 32.2992 -11.1554 -0.0 0.0 -0.0 4.87961 25.815 9.35714 -10.2529 -37.0068 25.4547 4.56437 -66.1197 2.97182 -42.7381 -3.24696 4.25031 -10.9452 26.1032 -69.8372 -0.0 0.0 -0.0 10.8332 20.4794 -21.2422 -27.6407 21.4936 -62.1032 0.600915 16.5771 -0.0875423 -14.8328 0.751923 -1.73586 4.71196 -5.48633 -35.6028 0.0 0.0 0.0 -27.7323 16.495 26.3497 -9.05243 0.265541 1.36245 19.3366 7.63503 -2.64821 6.30213 -0.0 -0.0 -0.0 0.0 -0.0 29.3638 34.6856 -5.84029 -14.9476 -0.321595 -2.26485 18.3683 -16.0692 2.55647 -7.16782 0.0 0.0 0.0 0.0 0.0 
2518.87 713.913 -1502.17 3.2592 59.6699 -13.4309 -1.39946 0.946192 4.93381 -1.38614 0.630724 4.98385 -1.31853 -0.546472 4.99377 -1.35323 0.248034 5.01739 5.08585 13.5253 -10.1097 7.16636 31.8874 -11.5553 -0.0 0.0 -0.0 3.57137 23.8361 7.62409 -13.7706 -34.6262 27.3207 3.77603 -61.8542 2.26286 -43.7041 -3.35343 4.31382 -10.6926 24.53 -69.9663 -0.0 0.0 -0.0 11.6919 20.9406 -23.1587 -25.0887 21.8892 -61.9621 0.624213 17.1826 -0.0943074 -12.9965 0.634721 -1.53217 4.86706 -5.33152 -36.8274 0.0 0.0 0.0 -27.554 16.7109 25.1131 -10.5941 0.289164 1.59782 16.7408 9.53907 -2.32042 5.69357 -0.0 -0.0 -0.0 0.0 -0.0 26.6569 33.7598 -4.44895 -11.8218 -0.30344 -1.78565 13.2758 -16.4663 1.88686 -7.01501 0.0 0.0 0.0 0.0 0.0 
2499.54 714.306 -1507.8 4.56558 60.1788 -14.9457 -1.48565 0.999498 5.12563 -1.47129 0.671764 5.17864 -1.39643 -0.55895 5.192 -1.43393 0.266892 5.21511 5.37172 13.3762 -10.1215 7.46105 31.615 -11.6545 -0.0 0.0 -0.0 2.68387 22.5481 6.3672 -16.3993 -32.9074 28.8501 3.30555 -58.5743 1.85437 -44.3974 -3.4305 4.3583 -10.52 23.4217 -69.9925 -0.0 0.0 -0.0 12.27 21.2557 -24.46 -23.3931 22.0893 -61.6018 0.640103 17.5933 -0.0990559 -11.6973 0.555782 -1.38586 4.97365 -5.22429 -37.6813 0.0 0.0 0.0 -27.3498 16.8836 24.1775 -11.796 0.303182 1.78171 14.8006 10.8713 -2.06994 5.23118 -0.0 -0.0 -0.0 0.0 -0.0 24.8465 33.0547 -3.6479 -9.61502 -0.274896 -1.44827 9.63937 -16.7221 1.38821 -6.90798 0.0 0.0 0.0 0.0 0.0 
2470.82 721.869 -1516.67 4.0464 61.0741 -14.1688 -1.54636 1.0503 5.33279 -1.53083 0.709335 5.38859 -1.44851 -0.576493 5.40437 -1.48913 0.282964 5.42759 5.24611 13.3174 -10.0349 7.29097 31.454 -11.505 -0.0 0.0 -0.0 2.23572 21.6728 5.69792 -18.537 -32.1524 30.8403 2.86777 -54.8469 1.48823 -45.2752 -3.52883 4.41327 -10.3929 22.6676 -69.7174 -0.0 0.0 -0.0 13.1227 21.1205 -26.4463 -20.4414 22.6835 -61.2638 0.688684 18.8373 -0.114243 -10.4785 0.484773 -1.24704 5.02501 -5.11669 -38.0753 0.0 0.0 0.0 -25.768 17.4083 23.3173 -12.6324 0.310659 1.90982 13.3972 11.706 -1.88555 4.8976 -0.0 -0.0 -0.0 0.0 -0.0 21.2841 32.1621 -3.63993 -8.40723 -0.253776 -1.26414 7.07646 -16.8793 1.02771 -6.79253 0.0 0.0 0.0 0.0 0.0 
2443.83 720.978 -1527.76 5.86313 60.0954 -16.5214 -1.69878 1.11672 5.7271 -1.68086 0.750649 5.78628 -1.58635 -0.643926 5.79908 -1.63314 0.278405 5.82798 5.40987 13.4112 -10.1635 7.51943 31.7062 -11.7203 -0.0 0.0 -0.0 1.73724 21.6613 4.98655 -21.0235 -30.7329 32.9733 2.18731 -47.2896 0.957745 -45.9336 -3.60314 4.45351 -10.0753 20.9448 -68.343 -0.0 0.0 -0.0 13.5964 21.1209 -27.555 -17.9187 23.6819 -60.805 0.702885 19.1976 -0.11887 -10.174 0.467496 -1.21213 5.02246 -5.11647 -38.0535 0.0 0.0 0.0 -24.715 17.8148 21.8401 -18.1163 0.313302 2.75089 12.3739 11.9932 -1.74875 5.69603 -0.0 -0.0 -0.0 0.0 -0.0 18.1576 31.3553 -3.7764 -10.103 -0.282327 -1.52278 5.72825 -14.3466 0.830363 -6.90277 0.0 0.0 0.0 0.0 0.0 
2418.41 734.851 -1535.27 7.86658 58.3064 -18.5971 -1.87492 1.214 6.03538 -1.85505 0.828222 6.10007 -1.745 -0.659944 6.12048 -1.79709 0.313069 6.14789 5.48445 13.5353 -10.2043 7.63668 31.9439 -11.8008 -0.0 0.0 -0.0 1.38187 22.1652 4.51618 -23.8906 -29.2808 35.5399 1.70339 -40.1545 0.622624 -46.395 -3.65549 4.4812 -9.82225 19.7399 -66.7191 -0.0 0.0 -0.0 13.9367 21.1219 -28.3567 -14.6385 25.0557 -60.9242 0.713098 19.4557 -0.12225 -10.0007 0.45775 -1.19222 4.99777 -5.0966 -37.8366 0.0 0.0 0.0 -24.0486 18.0873 20.2765 -23.0104 0.247755 3.49875 11.6558 12.2001 -1.65197 6.25338 -0.0 -0.0 -0.0 0.0 -0.0 15.2079 30.8629 -3.23778 -11.2711 -0.297534 -1.70136 5.03343 -12.5351 0.728965 -6.97863 0.0 0.0 0.0 0.0 0.0 
2404.63 735.131 -1534.17 8.32646 54.8924 -19.2869 -1.97053 1.29723 6.35101 -1.94855 0.891329 6.42029 -1.82381 -0.684415 6.44553 -1.88157 0.339926 6.47273 5.50516 14.4008 -10.2579 7.853 33.4569 -11.923 -0.0 0.0 -0.0 1.68032 21.45 4.8922 -25.2727 -28.1288 37.7499 1.41265 -34.9818 0.445181 -46.0431 -3.61555 4.46012 -9.51834 19.5362 -62.2005 -0.0 0.0 -0.0 13.839 22.7763 -27.9786 -11.615 26.2594 -61.5984 0.720309 19.6374 -0.124663 -10.4695 0.484259 -1.24601 4.84053 -4.54693 -36.3081 0.0 0.0 0.0 -21.1569 18.9654 17.7326 -28.0545 0.113654 4.26098 10.5614 12.4015 -1.503 6.38773 -0.0 -0.0 -0.0 0.0 -0.0 12.0438 30.5224 -2.2291 -10.5771 -0.288938 -1.59523 6.92535 -7.24256 0.994482 -7.06239 0.0 0.0 0.0 0.0 0.0 
2393.54 731.503 -1535.53 8.01158 53.2564 -18.2722 -1.97064 1.28146 6.43095 -1.94807 0.870532 6.49906 -1.82398 -0.723853 6.51696 -1.88306 0.312184 6.54946 5.50188 15.0035 -10.2987 7.99231 34.5154 -12.0126 -0.0 0.0 -0.0 1.75837 20.5224 4.9469 -28.0377 -27.1088 39.9816 1.21926 -31.1301 0.339634 -45.9286 -3.60258 4.45321 -9.25301 19.3612 -58.8298 -0.0 0.0 -0.0 13.9369 24.0256 -28.0823 -5.62641 27.7953 -62.8271 0.736668 20.0482 -0.130216 -10.4304 0.482035 -1.24154 4.60666 -4.18848 -34.2557 0.0 0.0 0.0 -19.1791 19.5149 15.7128 -31.4445 -0.0139654 4.76551 9.78829 12.4742 -1.39677 6.4825 -0.0 -0.0 -0.0 0.0 -0.0 9.8323 30.2794 -1.43247 -10.0311 -0.281271 -1.51179 10.88 -3.30201 1.54654 -7.11934 0.0 0.0 0.0 0.0 0.0 
